<?xml version="1.0" encoding="UTF-8"?>
<svg xmlns="http://www.w3.org/2000/svg" xmlns:xlink="http://www.w3.org/1999/xlink" width="1020pt" height="538pt" viewBox="0 0 1020 538" version="1.1">
<g id="surface1">
<path style=" stroke:none;fill-rule:evenodd;fill:rgb(0%,0%,0%);fill-opacity:1;" d="M 453.398438 395.347656 C 447.964844 395.347656 443.734375 390.996094 443.734375 385.328125 C 443.734375 379.777344 447.964844 375.351563 453.398438 375.351563 C 458.832031 375.351563 463.0625 379.738281 463.0625 385.328125 C 463.0625 390.996094 458.871094 395.347656 453.398438 395.347656 Z M 453.398438 371.902344 C 445.902344 371.902344 439.929688 377.875 439.929688 385.363281 C 439.929688 392.785156 445.945313 398.796875 453.398438 398.796875 C 460.847656 398.796875 466.867188 392.785156 466.867188 385.363281 C 466.867188 377.835938 460.890625 371.902344 453.398438 371.902344 "/>
<path style=" stroke:none;fill-rule:nonzero;fill:rgb(0%,0%,0%);fill-opacity:1;" d="M 484.066406 372.402344 L 484.066406 389.871094 C 484.066406 391.96875 483.796875 392.820313 482.785156 393.867188 C 481.851563 394.835938 480.609375 395.34375 479.175781 395.34375 C 476.140625 395.34375 474.242188 393.25 474.242188 389.871094 L 474.242188 372.402344 L 470.480469 372.402344 L 470.480469 390.375 C 470.480469 395.105469 474.242188 398.792969 479.097656 398.792969 C 481.503906 398.792969 483.714844 397.90625 485.460938 396.195313 C 487.136719 394.566406 487.828125 392.855469 487.828125 390.375 L 487.828125 372.402344 L 484.066406 372.402344 "/>
<path style=" stroke:none;fill-rule:evenodd;fill:rgb(0%,0%,0%);fill-opacity:1;" d="M 496.539063 375.898438 L 500.535156 375.898438 C 503.992188 375.898438 506.28125 377.796875 506.28125 380.714844 C 506.28125 384.011719 503.800781 385.757813 499.140625 385.757813 L 496.539063 385.757813 Z M 502.636719 388.667969 C 504.769531 388.363281 505.503906 388.085938 506.785156 387.269531 C 508.84375 385.988281 510.046875 383.546875 510.046875 380.714844 C 510.046875 378.269531 509.15625 376.015625 507.679688 374.582031 C 506.085938 373.105469 503.953125 372.40625 500.773438 372.40625 L 492.777344 372.40625 L 492.777344 398.292969 L 496.539063 398.292969 L 496.539063 386.261719 L 505.160156 398.292969 L 509.890625 398.292969 L 502.636719 388.667969 "/>
<path style=" stroke:none;fill-rule:evenodd;fill:rgb(0%,0%,0%);fill-opacity:1;" d="M 527.539063 375.898438 L 531.390625 375.898438 C 534.804688 375.898438 536.585938 377.332031 536.585938 380.125 C 536.585938 382.925781 534.644531 384.628906 531.425781 384.628906 L 527.539063 384.628906 Z M 531.273438 388.085938 C 534.722656 388.085938 536.585938 387.425781 538.375 385.523438 C 539.730469 384.011719 540.390625 382.300781 540.390625 380.125 C 540.390625 375.621094 537.203125 372.40625 532.785156 372.40625 L 523.777344 372.40625 L 523.777344 398.292969 L 527.539063 398.292969 L 527.539063 388.085938 L 531.273438 388.085938 "/>
<path style=" stroke:none;fill-rule:nonzero;fill:rgb(0%,0%,0%);fill-opacity:1;" d="M 557.804688 394.839844 L 547.597656 394.839844 L 547.597656 386.960938 L 557.804688 386.960938 L 557.804688 383.507813 L 547.597656 383.507813 L 547.597656 375.898438 L 557.804688 375.898438 L 557.804688 372.40625 L 543.835938 372.40625 L 543.835938 398.296875 L 557.804688 398.296875 L 557.804688 394.839844 "/>
<path style=" stroke:none;fill-rule:evenodd;fill:rgb(0%,0%,0%);fill-opacity:1;" d="M 574.1875 395.347656 C 568.75 395.347656 564.523438 390.996094 564.523438 385.328125 C 564.523438 379.777344 568.75 375.351563 574.1875 375.351563 C 579.621094 375.351563 583.847656 379.738281 583.847656 385.328125 C 583.847656 390.996094 579.65625 395.347656 574.1875 395.347656 Z M 574.1875 371.902344 C 566.6875 371.902344 560.710938 377.875 560.710938 385.363281 C 560.710938 392.785156 566.734375 398.796875 574.1875 398.796875 C 581.636719 398.796875 587.648438 392.785156 587.648438 385.363281 C 587.648438 377.835938 581.679688 371.902344 574.1875 371.902344 "/>
<path style=" stroke:none;fill-rule:evenodd;fill:rgb(0%,0%,0%);fill-opacity:1;" d="M 595.296875 375.898438 L 599.144531 375.898438 C 602.558594 375.898438 604.34375 377.332031 604.34375 380.125 C 604.34375 382.925781 602.398438 384.628906 599.183594 384.628906 L 595.296875 384.628906 Z M 599.027344 388.085938 C 602.480469 388.085938 604.34375 387.425781 606.132813 385.523438 C 607.484375 384.011719 608.144531 382.300781 608.144531 380.125 C 608.144531 375.621094 604.960938 372.40625 600.542969 372.40625 L 591.535156 372.40625 L 591.535156 398.292969 L 595.296875 398.292969 L 595.296875 388.085938 L 599.027344 388.085938 "/>
<path style=" stroke:none;fill-rule:nonzero;fill:rgb(0%,0%,0%);fill-opacity:1;" d="M 624.320313 394.839844 L 615.355469 394.839844 L 615.355469 372.40625 L 611.585938 372.40625 L 611.585938 398.296875 L 624.320313 398.296875 L 624.320313 394.839844 "/>
<path style=" stroke:none;fill-rule:nonzero;fill:rgb(0%,0%,0%);fill-opacity:1;" d="M 641.5625 394.839844 L 631.355469 394.839844 L 631.355469 386.960938 L 641.5625 386.960938 L 641.5625 383.507813 L 631.355469 383.507813 L 631.355469 375.898438 L 641.5625 375.898438 L 641.5625 372.40625 L 627.589844 372.40625 L 627.589844 398.296875 L 641.5625 398.296875 L 641.5625 394.839844 "/>
<path style=" stroke:none;fill-rule:nonzero;fill:rgb(0%,0%,0%);fill-opacity:1;" d="M 682.945313 372.402344 L 677.007813 372.402344 L 669.199219 392.238281 L 661.4375 372.402344 L 655.496094 372.402344 L 655.496094 398.292969 L 659.261719 398.292969 L 659.261719 376.441406 L 668.078125 398.292969 L 670.363281 398.292969 L 679.183594 376.441406 L 679.183594 398.292969 L 682.945313 398.292969 L 682.945313 372.402344 "/>
<path style=" stroke:none;fill-rule:evenodd;fill:rgb(0%,0%,0%);fill-opacity:1;" d="M 693.757813 387.191406 L 697.089844 377.335938 L 700.398438 387.191406 Z M 698.761719 372.40625 L 695.34375 372.40625 L 685.527344 398.296875 L 689.519531 398.296875 L 692.394531 390.648438 L 701.710938 390.648438 L 704.585938 398.296875 L 708.585938 398.296875 L 698.761719 372.40625 "/>
<path style=" stroke:none;fill-rule:evenodd;fill:rgb(0%,0%,0%);fill-opacity:1;" d="M 719.371094 385.253906 L 729.507813 372.40625 L 724.84375 372.40625 L 714.949219 385.253906 L 714.949219 372.40625 L 711.1875 372.40625 L 711.1875 398.296875 L 714.949219 398.296875 L 714.949219 385.253906 L 724.84375 398.296875 L 729.507813 398.296875 L 719.371094 385.253906 "/>
<path style=" stroke:none;fill-rule:nonzero;fill:rgb(0%,0%,0%);fill-opacity:1;" d="M 746.058594 394.839844 L 735.847656 394.839844 L 735.847656 386.960938 L 746.058594 386.960938 L 746.058594 383.507813 L 735.847656 383.507813 L 735.847656 375.898438 L 746.058594 375.898438 L 746.058594 372.40625 L 732.085938 372.40625 L 732.085938 398.296875 L 746.058594 398.296875 L 746.058594 394.839844 "/>
<path style=" stroke:none;fill-rule:nonzero;fill:rgb(0%,0%,0%);fill-opacity:1;" d="M 766.59375 375.898438 L 771.519531 375.898438 L 771.519531 372.40625 L 757.820313 372.40625 L 757.820313 375.898438 L 762.789063 375.898438 L 762.789063 398.292969 L 766.59375 398.292969 L 766.59375 375.898438 "/>
<path style=" stroke:none;fill-rule:nonzero;fill:rgb(0%,0%,0%);fill-opacity:1;" d="M 792.742188 372.402344 L 788.980469 372.402344 L 788.980469 383.578125 L 778.300781 383.578125 L 778.300781 372.402344 L 774.539063 372.402344 L 774.539063 398.292969 L 778.300781 398.292969 L 778.300781 387.035156 L 788.980469 387.035156 L 788.980469 398.292969 L 792.742188 398.292969 L 792.742188 372.402344 "/>
<path style=" stroke:none;fill-rule:nonzero;fill:rgb(0%,0%,0%);fill-opacity:1;" d="M 811.917969 394.839844 L 801.710938 394.839844 L 801.710938 386.960938 L 811.917969 386.960938 L 811.917969 383.507813 L 801.710938 383.507813 L 801.710938 375.898438 L 811.917969 375.898438 L 811.917969 372.40625 L 797.945313 372.40625 L 797.945313 398.296875 L 811.917969 398.296875 L 811.917969 394.839844 "/>
<path style=" stroke:none;fill-rule:evenodd;fill:rgb(0%,0%,0%);fill-opacity:1;" d="M 829.617188 375.898438 L 834.273438 375.898438 C 837.183594 375.898438 839.128906 376.632813 840.953125 378.496094 C 842.742188 380.320313 843.710938 382.769531 843.710938 385.488281 C 843.710938 388.433594 842.546875 391.035156 840.566406 392.664063 C 838.742188 394.140625 836.257813 394.839844 832.6875 394.839844 L 829.617188 394.839844 Z M 833.886719 398.292969 C 838.625 398.292969 841.886719 397.128906 844.214844 394.53125 C 846.230469 392.355469 847.480469 388.902344 847.480469 385.488281 C 847.480469 381.835938 846.074219 378.34375 843.710938 375.863281 C 841.417969 373.527344 838.660156 372.40625 835.015625 372.40625 L 825.855469 372.40625 L 825.855469 398.292969 L 833.886719 398.292969 "/>
<path style=" stroke:none;fill-rule:nonzero;fill:rgb(0%,0%,0%);fill-opacity:1;" d="M 855.136719 372.40625 L 851.371094 372.40625 L 851.371094 398.292969 L 855.136719 398.292969 L 855.136719 372.40625 "/>
<path style=" stroke:none;fill-rule:nonzero;fill:rgb(0%,0%,0%);fill-opacity:1;" d="M 864.082031 387.113281 L 873.359375 387.113281 L 873.359375 383.660156 L 864.082031 383.660156 L 864.082031 375.894531 L 873.359375 375.894531 L 873.359375 372.402344 L 860.320313 372.402344 L 860.320313 398.292969 L 864.082031 398.292969 L 864.082031 387.113281 "/>
<path style=" stroke:none;fill-rule:nonzero;fill:rgb(0%,0%,0%);fill-opacity:1;" d="M 880.765625 387.113281 L 890.042969 387.113281 L 890.042969 383.660156 L 880.765625 383.660156 L 880.765625 375.894531 L 890.042969 375.894531 L 890.042969 372.402344 L 877.003906 372.402344 L 877.003906 398.292969 L 880.765625 398.292969 L 880.765625 387.113281 "/>
<path style=" stroke:none;fill-rule:nonzero;fill:rgb(0%,0%,0%);fill-opacity:1;" d="M 907.660156 394.839844 L 897.445313 394.839844 L 897.445313 386.960938 L 907.660156 386.960938 L 907.660156 383.507813 L 897.445313 383.507813 L 897.445313 375.898438 L 907.660156 375.898438 L 907.660156 372.40625 L 893.6875 372.40625 L 893.6875 398.296875 L 907.660156 398.296875 L 907.660156 394.839844 "/>
<path style=" stroke:none;fill-rule:evenodd;fill:rgb(0%,0%,0%);fill-opacity:1;" d="M 915.648438 375.898438 L 919.648438 375.898438 C 923.101563 375.898438 925.394531 377.796875 925.394531 380.714844 C 925.394531 384.011719 922.910156 385.757813 918.246094 385.757813 L 915.648438 385.757813 Z M 921.746094 388.667969 C 923.878906 388.363281 924.621094 388.085938 925.902344 387.269531 C 927.953125 385.988281 929.15625 383.546875 929.15625 380.714844 C 929.15625 378.269531 928.273438 376.015625 926.789063 374.582031 C 925.195313 373.105469 923.0625 372.40625 919.882813 372.40625 L 911.886719 372.40625 L 911.886719 398.292969 L 915.648438 398.292969 L 915.648438 386.261719 L 924.265625 398.292969 L 929.003906 398.292969 L 921.746094 388.667969 "/>
<path style=" stroke:none;fill-rule:nonzero;fill:rgb(0%,0%,0%);fill-opacity:1;" d="M 947.15625 394.839844 L 936.949219 394.839844 L 936.949219 386.960938 L 947.15625 386.960938 L 947.15625 383.507813 L 936.949219 383.507813 L 936.949219 375.898438 L 947.15625 375.898438 L 947.15625 372.40625 L 933.1875 372.40625 L 933.1875 398.296875 L 947.15625 398.296875 L 947.15625 394.839844 "/>
<path style=" stroke:none;fill-rule:nonzero;fill:rgb(0%,0%,0%);fill-opacity:1;" d="M 971.957031 372.402344 L 968.148438 372.402344 L 968.148438 392.128906 L 955.496094 372.402344 L 951.378906 372.402344 L 951.378906 398.292969 L 955.148438 398.292969 L 955.148438 378.304688 L 968.035156 398.292969 L 971.957031 398.292969 L 971.957031 372.402344 "/>
<path style=" stroke:none;fill-rule:evenodd;fill:rgb(0%,0%,0%);fill-opacity:1;" d="M 996.546875 391.929688 C 994.609375 394.179688 992.199219 395.34375 989.445313 395.34375 C 984.28125 395.34375 979.9375 390.722656 979.9375 385.285156 C 979.9375 379.777344 984.207031 375.347656 989.523438 375.347656 C 992.394531 375.347656 994.726563 376.554688 996.816406 379 L 1001.359375 379 C 998.761719 374.421875 994.570313 371.898438 989.445313 371.898438 C 982.070313 371.898438 976.132813 377.835938 976.132813 385.285156 C 976.132813 392.699219 982.140625 398.800781 989.402344 398.800781 C 994.371094 398.800781 998.722656 396.273438 1001.171875 391.929688 L 996.546875 391.929688 "/>
<path style=" stroke:none;fill-rule:nonzero;fill:rgb(0%,0%,0%);fill-opacity:1;" d="M 1018.851563 394.839844 L 1008.640625 394.839844 L 1008.640625 386.960938 L 1018.851563 386.960938 L 1018.851563 383.507813 L 1008.640625 383.507813 L 1008.640625 375.898438 L 1018.851563 375.898438 L 1018.851563 372.40625 L 1004.878906 372.40625 L 1004.878906 398.296875 L 1018.851563 398.296875 L 1018.851563 394.839844 "/>
<path style=" stroke:none;fill-rule:evenodd;fill:rgb(0%,0%,0%);fill-opacity:1;" d="M 215.542969 497.296875 L 245.054688 459.878906 L 231.484375 459.878906 L 202.65625 497.296875 L 202.65625 459.878906 L 191.6875 459.878906 L 191.6875 535.289063 L 202.65625 535.289063 L 202.65625 497.296875 L 231.484375 535.289063 L 245.054688 535.289063 L 215.542969 497.296875 "/>
<path style=" stroke:none;fill-rule:nonzero;fill:rgb(0%,0%,0%);fill-opacity:1;" d="M 302.253906 470.054688 L 316.617188 470.054688 L 316.617188 459.882813 L 276.703125 459.882813 L 276.703125 470.054688 L 291.175781 470.054688 L 291.175781 535.285156 L 302.253906 535.285156 L 302.253906 470.054688 "/>
<path style=" stroke:none;fill-rule:evenodd;fill:rgb(0%,0%,0%);fill-opacity:1;" d="M 349.507813 526.691406 C 333.679688 526.691406 321.359375 514.03125 321.359375 497.53125 C 321.359375 481.355469 333.679688 468.46875 349.507813 468.46875 C 365.6875 468.46875 377.65625 481.613281 377.65625 497.53125 C 377.65625 514.03125 365.453125 526.691406 349.507813 526.691406 Z M 349.21875 536.757813 L 349.800781 536.757813 C 371.367188 536.601563 388.734375 519.132813 388.734375 497.640625 C 388.734375 475.707031 371.328125 458.414063 349.507813 458.414063 C 327.6875 458.414063 310.28125 475.816406 310.28125 497.640625 C 310.28125 519.132813 327.648438 536.601563 349.21875 536.757813 "/>
<path style=" stroke:none;fill-rule:nonzero;fill:rgb(0%,0%,0%);fill-opacity:1;" d="M 434.296875 525.226563 L 404.5625 525.226563 L 404.5625 502.273438 L 434.296875 502.273438 L 434.296875 492.210938 L 404.5625 492.210938 L 404.5625 470.054688 L 434.296875 470.054688 L 434.296875 459.882813 L 393.597656 459.882813 L 393.597656 535.289063 L 434.296875 535.289063 L 434.296875 525.226563 "/>
<path style=" stroke:none;fill-rule:nonzero;fill:rgb(0%,0%,0%);fill-opacity:1;" d="M 499.332031 459.878906 L 488.253906 459.878906 L 488.253906 517.304688 L 451.398438 459.878906 L 439.414063 459.878906 L 439.414063 535.285156 L 450.382813 535.285156 L 450.382813 477.0625 L 487.917969 535.285156 L 499.332031 535.285156 L 499.332031 459.878906 "/>
<path style=" stroke:none;fill-rule:nonzero;fill:rgb(0%,0%,0%);fill-opacity:1;" d="M 594.179688 459.878906 L 583.101563 459.878906 L 583.101563 517.304688 L 546.242188 459.878906 L 534.257813 459.878906 L 534.257813 535.285156 L 545.226563 535.285156 L 545.226563 477.0625 L 582.757813 535.285156 L 594.179688 535.285156 L 594.179688 459.878906 "/>
<path style=" stroke:none;fill-rule:nonzero;fill:rgb(0%,0%,0%);fill-opacity:1;" d="M 678.914063 470.054688 L 693.269531 470.054688 L 693.269531 459.882813 L 651.859375 459.882813 L 651.859375 470.054688 L 667.828125 470.054688 L 667.828125 535.285156 L 678.914063 535.285156 L 678.914063 470.054688 "/>
<path style=" stroke:none;fill-rule:nonzero;fill:rgb(0%,0%,0%);fill-opacity:1;" d="M 706.820313 459.882813 L 695.851563 459.882813 L 695.851563 535.285156 L 706.820313 535.285156 L 706.820313 459.882813 "/>
<path style=" stroke:none;fill-rule:nonzero;fill:rgb(0%,0%,0%);fill-opacity:1;" d="M 759.636719 524.730469 L 729.898438 524.730469 L 729.898438 501.78125 L 759.636719 501.78125 L 759.636719 491.714844 L 729.898438 491.714844 L 729.898438 469.558594 L 759.636719 469.558594 L 759.636719 459.386719 L 718.9375 459.386719 L 718.9375 534.792969 L 759.636719 534.792969 L 759.636719 524.730469 "/>
<path style=" stroke:none;fill-rule:nonzero;fill:rgb(0%,0%,0%);fill-opacity:1;" d="M 648.835938 535.257813 L 637.765625 535.257813 L 637.765625 477.828125 L 598.953125 535.257813 L 585.992188 535.257813 L 636.441406 459.847656 L 648.835938 459.847656 L 648.835938 535.257813 "/>
<path style=" stroke:none;fill-rule:nonzero;fill:rgb(0%,0%,0%);fill-opacity:1;" d="M 610.007813 504.285156 L 642.207031 504.285156 L 642.207031 515.28125 L 610.007813 515.28125 L 610.007813 504.285156 "/>
<path style=" stroke:none;fill-rule:nonzero;fill:rgb(0%,0%,0%);fill-opacity:1;" d="M 273.117188 535.320313 L 262.039063 535.320313 L 262.039063 477.890625 L 223.226563 535.320313 L 210.265625 535.320313 L 260.71875 459.917969 L 273.117188 459.917969 L 273.117188 535.320313 "/>
<path style=" stroke:none;fill-rule:nonzero;fill:rgb(0%,0%,0%);fill-opacity:1;" d="M 234.28125 504.347656 L 266.472656 504.347656 L 266.472656 515.339844 L 234.28125 515.339844 L 234.28125 504.347656 "/>
<path style=" stroke:none;fill-rule:nonzero;fill:rgb(87.889099%,12.156677%,14.892578%);fill-opacity:1;" d="M 125.933594 128.121094 L 67.195313 173.027344 L 67.195313 246.03125 L 125.957031 289.242188 L 185.199219 246.039063 L 185.199219 173.011719 L 125.933594 128.121094 "/>
<path style=" stroke:none;fill-rule:nonzero;fill:rgb(87.889099%,12.156677%,14.892578%);fill-opacity:1;" d="M 316.261719 173.011719 L 257 128.121094 L 198.265625 173.03125 L 198.265625 246.03125 L 257.023438 289.246094 L 316.261719 246.039063 L 316.261719 173.011719 "/>
<path style=" stroke:none;fill-rule:nonzero;fill:rgb(87.889099%,12.156677%,14.892578%);fill-opacity:1;" d="M 322.402344 255.007813 L 263.664063 299.914063 L 263.664063 372.917969 L 322.425781 416.128906 L 381.667969 372.925781 L 381.667969 299.898438 L 322.402344 255.007813 "/>
<path style=" stroke:none;fill-rule:nonzero;fill:rgb(87.889099%,12.156677%,14.892578%);fill-opacity:1;" d="M 191.644531 255.007813 L 132.90625 299.914063 L 132.90625 372.917969 L 191.671875 416.128906 L 250.910156 372.925781 L 250.910156 299.898438 L 191.644531 255.007813 "/>
<path style=" stroke:none;fill-rule:nonzero;fill:rgb(87.889099%,12.156677%,14.892578%);fill-opacity:1;" d="M 191.640625 2.132813 L 132.90625 47.035156 L 132.90625 120.039063 L 191.671875 163.246094 L 250.910156 120.042969 L 250.910156 47.015625 L 191.652344 2.132813 L 191.640625 2.132813 "/>
<path style=" stroke:none;fill-rule:nonzero;fill:rgb(87.889099%,12.156677%,14.892578%);fill-opacity:1;" d="M 1.535156 372.921875 L 60.289063 416.132813 L 119.527344 372.929688 L 119.527344 299.898438 L 60.269531 255.011719 L 1.535156 299.914063 L 1.535156 372.921875 "/>
</g>
</svg>
