<?xml version="1.0" encoding="UTF-8" standalone="no"?>
<!-- Created with Inkscape (http://www.inkscape.org/) by Marsupilami -->
<svg
   xmlns:svg="http://www.w3.org/2000/svg"
   xmlns="http://www.w3.org/2000/svg"
   version="1.0"
   width="1024"
   height="244"
   viewBox="0 0 178.31445 42.466251"
   id="svg2636">
  <defs
     id="defs2638" />
  <g
     transform="translate(-745.12849,-556.84334)"
     id="layer1">
    <path
       d="M 22.28125,0 L 15.5,0.84375 C 14.145,0.98125 13.70875,1.9087499 13.625,2.6875 C 13.44125,5.01125 12.72875,9.4825 9.84375,13.6875 C 6.55625,18.4825 2.995,20.449999 1.125,21.28125 C 0.13375,21.72875 -0.14875,22.850001 0.09375,23.59375 L 2.125,30.0625 C 2.30375,30.62125 2.9425,30.843749 3.3125,30.71875 C 5.65125,29.9925 14.054999,28.32375 19.65625,20.15625 C 24.8075,12.64625 23.685001,3.78125 23.4375,0.90625 C 23.37875,0.4675 22.99375,-0.085 22.28125,0 z M 28.625,0 C 28.09875,-0.04 27.7125,0.24625 27.53125,0.78125 C 26.562501,3.65625 23.76375,12.14625 27.03125,19.65625 C 30.585001,27.82375 38.095,30.1175 40.25,30.84375 C 40.311248,30.8575 40.37125,30.875 40.4375,30.875 C 40.813749,30.874999 41.1775,30.66625 41.375,30.34375 C 41.375,30.34375 44.6825,24.4 45.03125,23.8125 C 45.412501,23.172499 45.4625,21.955 44.375,21.21875 C 42.581251,20.1125 39.665,17.89625 37.875,13.78125 C 36.046251,9.5749998 36.3825,5.35375 36.78125,3.03125 C 36.910001,1.9737499 36.10375,0.9775 34.875,0.875 L 28.625,0 z M 166.375,2.78125 C 165.01219,2.8154688 163.48,2.90125 161.78125,3.0625 C 153.96375,4.00625 144.01751,8.0462493 140.9375,23.15625 C 140.12625,27.145 141.26501,31.240001 143.21875,33.78125 C 145.66125,36.9625 148.74875,39.596249 157.3125,39.71875 C 165.375,39.865 172.91999,36.943749 173.9375,36.59375 C 174.30375,36.445 174.77125,36.10125 175,35.25 C 175.74125,32.00875 178.23625,20.74625 178.28125,20.53125 C 178.48375,19.65 177.9775,18.562499 176.84375,18.5625 L 170.65625,18.5625 C 167.905,18.5625 165.47125,20.5475 164.75,23.15625 L 163.46875,29.15625 C 158.3675,30.3625 154.23875,28.579999 154.59375,23.15625 C 154.94875,17.73125 159.26001,12.38125 173,14.53125 C 174.0325,14.59875 174.70125,13.83625 174.875,13.15625 C 174.96375,12.73625 176.59,5.4462502 176.625,5.28125 C 176.8225,4.21375 176.14249,3.585 175.4375,3.4375 C 175.0825,3.3675 174.61625,3.2625 173.9375,3.15625 C 172.8925,3.0025 171.445,2.8874999 169.96875,2.8125 C 168.9125,2.768125 167.73781,2.7470312 166.375,2.78125 z M 61.09375,3.53125 C 60.2225,3.53125 59.224998,4.3624998 59.5,5.5625 L 66.875,37.65625 C 67.02625,38.365 67.690001,38.9375 68.4375,38.9375 L 81.71875,38.9375 C 83.805,38.9375 85.915004,37.194999 86.6875,35.625 L 86.6875,35.59375 L 101.6875,6.34375 C 101.7475,6.23125 101.87125,6.035 101.875,6 C 102.42,4.98875 101.90375,3.53125 100.375,3.53125 L 88.65625,3.53125 C 87.95375,3.53125 87.3875,3.9737501 87.1875,4.40625 L 77.78125,25.21875 L 74.25,4.9375 C 74.08125,4.0825 73.3975,3.53125 72.65625,3.53125 L 61.09375,3.53125 z M 106.1875,3.53125 C 105.17125,3.53125 104.6275,4.2412501 104.4375,4.96875 L 102.5,14.21875 C 102.26625,15.30125 102.925,16.21875 104,16.21875 L 113.75,16.21875 L 109.21875,36.96875 C 108.985,38.05125 109.67375,38.937498 110.75,38.9375 L 122.78125,38.9375 C 123.67,38.9375 124.3575,38.385 124.5625,37.4375 L 129.21875,16.21875 L 134.75,16.125 C 136.68875,16.08375 140.23501,16.3 141.1875,14.125 C 141.5875,13.5175 142.365,10.41125 142.71875,8.78125 L 142.71875,8.71875 L 143.40625,5.5 C 143.64,4.4175 142.95001,3.5312499 141.875,3.53125 L 106.1875,3.53125 z M 22.625,27.1875 C 13.349999,27.1875 6.68625,32.755 4.75,34.375 C 4.3762499,34.678749 4.29,35.27875 4.5,35.625 L 8.09375,41.625 C 8.8387499,42.678748 10.05125,42.64375 10.75,42.125 C 12.48,40.979998 15.61875,38.84375 21.0625,38.84375 C 25.83875,38.843751 29.43125,40.94625 31.21875,42.1875 C 32.078751,42.697502 33.06375,42.44875 33.75,41.71875 L 38.5,36.03125 L 38.625,35.90625 C 38.906251,35.49625 38.86875,34.95875 38.53125,34.59375 C 36.60625,32.638749 31.15375,27.1875 22.625,27.1875 z"
       transform="translate(745.12849,556.84334)"
       id="path2438"
       style="fill:#002d65;fill-opacity:1;fill-rule:nonzero;stroke:none" />
  </g>
</svg>
