<?xml version="1.0" encoding="UTF-8"?>
<svg xmlns="http://www.w3.org/2000/svg" xmlns:xlink="http://www.w3.org/1999/xlink" width="555.8pt" height="239.3pt" viewBox="0 0 555.8 239.3" version="1.1">
<g id="surface1">
<path style=" stroke:none;fill-rule:evenodd;fill:rgb(100%,100%,100%);fill-opacity:1;" d="M 321.757813 122.605469 L 324.761719 121.757813 C 316.570313 82.617188 307.582031 42.167969 298.128906 2.808594 L 295.007813 3.480469 Z M 321.757813 122.605469 "/>
<path style=" stroke:none;fill-rule:evenodd;fill:rgb(0%,43.138123%,59.959412%);fill-opacity:1;" d="M 362.332031 79.734375 C 367.441406 70.914063 370.894531 68.453125 373.5 76.589844 C 377.347656 79.589844 389.664063 72.285156 390.496094 61.6875 C 390.992188 56.945313 395.050781 54.925781 400.34375 56.109375 C 397.316406 49.855469 390.9375 48.242188 383.347656 49.222656 C 378.675781 40.53125 367.886719 38.277344 354.148438 39.113281 C 349.476563 31.960938 341.652344 27.175781 331.402344 24.210938 C 326.277344 20.800781 319.671875 17.109375 315.375 12.773438 C 308.582031 6.53125 302.886719 3.351563 298.128906 2.808594 C 307.582031 42.167969 316.570313 82.617188 324.761719 121.757813 C 332.664063 110.550781 338.046875 93.757813 352.257813 87.769531 C 355.996094 86.132813 359.5625 84.027344 362.332031 79.734375 Z M 362.332031 79.734375 "/>
<path style=" stroke:none;fill-rule:evenodd;fill:rgb(100%,92.576599%,0%);fill-opacity:1;" d="M 410.515625 63.382813 C 405.195313 61.980469 402.078125 59.410156 400.34375 56.109375 C 395.050781 54.925781 390.992188 56.945313 390.496094 61.6875 C 389.664063 72.285156 377.347656 79.589844 373.5 76.589844 C 370.894531 68.453125 367.441406 70.914063 362.332031 79.734375 C 359.5625 84.027344 355.996094 86.132813 352.257813 87.769531 C 338.046875 93.757813 332.664063 110.550781 324.761719 121.757813 C 326.914063 121.011719 328.789063 120.988281 330.804688 120.601563 C 336.832031 119.554688 341.777344 114.824219 347.261719 112.914063 C 350.847656 111.28125 361.109375 111.1875 363.9375 112.371094 C 368.980469 114.597656 374.269531 114.765625 380.179688 109.773438 C 382.011719 108.878906 383.226563 110.726563 383.609375 112.847656 C 387.066406 124.144531 393.296875 124.234375 400.808594 119.132813 C 411.246094 110.675781 422.144531 108.160156 433.6875 113.882813 C 443.710938 118.230469 453.757813 117.894531 465.8125 110.214844 C 471.84375 106.949219 478.714844 106.804688 482.425781 111.242188 C 488.828125 120 493.347656 121.761719 498.089844 116.542969 C 493.613281 118.621094 488.203125 117.609375 484.957031 111.636719 C 482.238281 105.945313 479.160156 102.984375 474.671875 100.246094 C 470.542969 96.996094 469.433594 87.820313 457.269531 86.957031 C 450.253906 86.988281 443.511719 87.523438 439.863281 81.894531 C 434.125 73.824219 426.617188 66.585938 410.515625 63.382813 Z M 410.515625 63.382813 "/>
<path style=" stroke:none;fill-rule:evenodd;fill:rgb(100%,100%,100%);fill-opacity:1;" d="M 417.667969 43.761719 C 406.527344 45.367188 404.625 60.839844 400.34375 56.109375 C 397.316406 49.855469 390.9375 48.242188 383.347656 49.222656 C 378.675781 40.53125 367.886719 38.277344 354.148438 39.113281 C 349.476563 31.960938 341.652344 27.175781 331.402344 24.210938 C 326.277344 20.800781 319.671875 17.109375 315.375 12.773438 C 308.582031 6.53125 302.886719 3.351563 298.128906 2.808594 C 308.203125 -0.03125 319.832031 2.875 332.910156 11.121094 C 336.230469 13.4375 340.839844 13.9375 346.933594 12.332031 C 350.863281 10.734375 354.894531 10.613281 359.054688 12.246094 C 363.238281 13.429688 364.410156 12.335938 366.933594 10.339844 C 373.421875 5.035156 381.542969 6.035156 391.261719 13.199219 C 395.148438 15.503906 399.785156 15.566406 405.289063 13.023438 C 421.15625 4.539063 430.976563 8.292969 436.457031 20.816406 C 440.84375 31.734375 445.71875 34.660156 458.1875 33.457031 C 450.5625 36.027344 445.292969 39.085938 443.210938 42.808594 C 440.949219 44.070313 439.753906 42.613281 439.574219 38.566406 C 439.078125 31.054688 423.332031 33.316406 417.667969 43.761719 Z M 417.667969 43.761719 "/>
<path style=" stroke:none;fill-rule:evenodd;fill:rgb(89.0625%,0%,8.616638%);fill-opacity:1;" d="M 492.375 115.351563 C 492.617188 116.066406 496.105469 116.300781 498.089844 116.542969 C 493.613281 118.621094 488.203125 117.609375 484.957031 111.636719 C 482.238281 105.945313 479.160156 102.984375 474.671875 100.246094 C 470.542969 96.996094 469.433594 87.820313 457.269531 86.957031 C 450.253906 86.988281 443.511719 87.523438 439.863281 81.894531 C 434.125 73.824219 426.617188 66.585938 410.515625 63.382813 C 405.195313 61.980469 402.078125 59.410156 400.34375 56.109375 C 404.625 60.839844 406.527344 45.367188 417.667969 43.761719 C 423.332031 33.316406 439.078125 31.054688 439.574219 38.566406 C 439.753906 42.613281 440.949219 44.070313 443.210938 42.808594 C 445.292969 39.085938 450.5625 36.027344 458.1875 33.457031 C 449.589844 41.859375 450.421875 58 459.074219 68.40625 C 464.539063 73.863281 470.78125 75.421875 472.800781 86.4375 C 474.34375 91.582031 478.972656 92.5 481.328125 96.996094 C 482.953125 100.433594 482.871094 104.847656 486.199219 107.308594 C 488.347656 109.0625 490.40625 111.929688 492.375 115.351563 Z M 492.375 115.351563 "/>
<path style=" stroke:none;fill-rule:evenodd;fill:rgb(10.594177%,9.812927%,9.423828%);fill-opacity:1;" d="M 4.8125 211.5 C 8.246094 211.390625 11.09375 209.179688 11.003906 203.359375 L 11.003906 147.855469 C 11.058594 142.558594 8.207031 139.867188 4.226563 140.070313 L 0.0117188 140.070313 L 0.0117188 135.335938 L 63.675781 135.335938 L 63.675781 152.699219 L 56.660156 152.699219 C 55.910156 144.34375 50.59375 139.835938 43.855469 139.894531 L 25.441406 139.894531 L 25.441406 172.515625 L 39.492188 172.515625 C 46.171875 172.671875 49.742188 168.203125 50.570313 160.203125 L 55.257813 160.203125 L 55.257813 188.238281 L 50.484375 188.238281 C 50.085938 180.65625 45.886719 176.929688 39.664063 176.90625 L 25.433594 176.90625 L 25.433594 203.320313 C 25.75 208.597656 27.839844 211.847656 32.929688 211.671875 L 36.765625 211.671875 L 36.765625 216.101563 L 0.0390625 216.101563 L 0.0390625 211.5 Z M 4.8125 211.5 "/>
<path style=" stroke:none;fill-rule:evenodd;fill:rgb(10.594177%,9.812927%,9.423828%);fill-opacity:1;" d="M 76.511719 203.015625 C 72.929688 199.957031 69.660156 193.921875 70.230469 184.066406 L 104.035156 184.066406 C 103.453125 169.726563 95.636719 162.082031 83 161.714844 C 70.078125 161.417969 59.011719 170.453125 60.34375 194.160156 C 62.886719 211.015625 72.90625 218.566406 88.152344 216.507813 C 94.65625 214.882813 99.292969 211.269531 103.1875 204.457031 L 100.097656 201.058594 C 92.964844 208.527344 84.777344 209.488281 76.511719 203.015625 Z M 80.941406 166.660156 C 74.101563 167.132813 70.613281 171.714844 70.640625 179.636719 L 91.859375 179.636719 C 91.375 170.648438 87.5 166.71875 80.941406 166.660156 Z M 80.941406 166.660156 "/>
<path style=" stroke:none;fill-rule:evenodd;fill:rgb(10.594177%,9.812927%,9.423828%);fill-opacity:1;" d="M 129.105469 211.390625 C 124.746094 211.535156 121.476563 209.464844 121.039063 203.335938 L 121.039063 178.253906 C 122.472656 174.417969 126.164063 171.890625 129.289063 170.0625 C 131.960938 174.757813 134.792969 175.964844 137.765625 175.722656 C 140.707031 175.105469 143.242188 170.566406 141.523438 166.132813 C 138.878906 160.761719 132.648438 160.242188 128.390625 163.71875 L 121.152344 171.015625 L 121.152344 163.496094 C 121.117188 161.804688 119.039063 161.632813 116.664063 162.652344 L 104.316406 166.917969 C 101.863281 168.007813 101.886719 170.429688 106.335938 172.304688 L 111.105469 174.328125 L 111.105469 203.753906 C 111.039063 207.664063 109.449219 211.121094 104.925781 211.492188 L 103.121094 211.492188 L 103.121094 216 L 132.15625 216 L 132.15625 211.390625 Z M 129.105469 211.390625 "/>
<path style=" stroke:none;fill-rule:evenodd;fill:rgb(10.594177%,9.812927%,9.423828%);fill-opacity:1;" d="M 169.605469 211.390625 C 165.246094 211.535156 161.976563 209.464844 161.539063 203.335938 L 161.539063 178.253906 C 162.972656 174.417969 166.664063 171.890625 169.789063 170.0625 C 172.460938 174.757813 175.292969 175.964844 178.265625 175.722656 C 181.207031 175.105469 183.742188 170.566406 182.023438 166.132813 C 179.378906 160.761719 173.148438 160.242188 168.890625 163.71875 L 161.652344 171.015625 L 161.652344 163.496094 C 161.617188 161.804688 159.539063 161.632813 157.164063 162.652344 L 144.816406 166.917969 C 142.363281 168.007813 142.386719 170.429688 146.835938 172.304688 L 151.605469 174.328125 L 151.605469 203.753906 C 151.539063 207.664063 149.949219 211.121094 145.425781 211.492188 L 143.621094 211.492188 L 143.621094 216 L 172.65625 216 L 172.65625 211.390625 Z M 169.605469 211.390625 "/>
<path style=" stroke:none;fill-rule:evenodd;fill:rgb(10.594177%,9.812927%,9.423828%);fill-opacity:1;" d="M 208.71875 225.382813 L 227.191406 176.929688 C 228.75 172.652344 231.558594 168.371094 236.191406 167.828125 L 236.191406 163.132813 L 217.699219 163.132813 L 217.699219 167.046875 C 222.304688 167.171875 224 169.789063 222.589844 175.070313 L 213.292969 201.882813 L 201.355469 173.210938 C 200.375 169.695313 202.46875 167.253906 206.226563 166.949219 L 206.226563 163.371094 L 183.925781 163.371094 L 183.925781 167.242188 C 186.121094 167.25 188.257813 167.96875 189.125 169.882813 L 207.617188 214.996094 L 202.441406 227.738281 C 200.964844 230.792969 198.488281 231.828125 195.367188 229.941406 C 191.652344 225.132813 185.972656 224.636719 184.339844 229.03125 C 183.003906 233.953125 185.570313 238.128906 192.402344 238.917969 C 199.398438 239.273438 204.96875 235.164063 208.71875 225.382813 Z M 208.71875 225.382813 "/>
<path style=" stroke:none;fill-rule:evenodd;fill:rgb(10.594177%,9.812927%,9.423828%);fill-opacity:1;" d="M 240.195313 211.589844 C 243.324219 211.519531 245.082031 209.53125 245.113281 206.359375 L 245.113281 175.316406 L 239.839844 172.367188 C 237.554688 170.898438 237.441406 169.082031 239.257813 167.796875 L 250.390625 162.4375 C 252.363281 161.339844 254.773438 161.464844 254.964844 162.851563 L 254.964844 169.933594 C 269.40625 158.867188 280.402344 160.890625 283.917969 169.875 C 302.402344 156.722656 315.324219 162.457031 315.273438 176.910156 L 315.273438 206.609375 C 315.320313 209.390625 316.863281 211.351563 319.726563 211.359375 L 322.003906 211.359375 L 322.003906 215.617188 L 297.949219 215.617188 L 297.949219 211.65625 C 301.949219 212.066406 304.78125 209.277344 305.074219 205.917969 L 305.074219 177.507813 C 305.394531 169.253906 293.265625 165.753906 285.109375 176.082031 C 285.109375 176.402344 285.113281 176.65625 285.113281 176.910156 L 285.113281 206.609375 C 285.160156 209.390625 286.703125 211.351563 289.566406 211.359375 L 291.84375 211.359375 L 291.84375 215.617188 L 267.789063 215.617188 L 267.789063 211.65625 C 271.792969 212.066406 274.617188 209.277344 274.914063 205.917969 L 274.914063 177.507813 C 275.234375 169.253906 263.105469 165.753906 254.957031 176.015625 L 254.957031 206.359375 C 255.222656 209.75 257.28125 211.410156 260.152344 211.539063 L 262.1875 211.539063 L 262.1875 215.660156 L 238.132813 215.660156 L 238.132813 211.589844 Z M 240.195313 211.589844 "/>
<path style=" stroke:none;fill-rule:evenodd;fill:rgb(10.594177%,9.812927%,9.423828%);fill-opacity:1;" d="M 0.0859375 108.929688 L 53.378906 108.929688 L 53.378906 100.082031 C 46.542969 100.101563 41.453125 98.386719 40.4375 91.496094 L 40.4375 18.289063 C 56.964844 16.898438 64.308594 22.996094 64.292969 36.011719 C 64.828125 49.742188 59.351563 57.226563 49.296875 55.914063 C 42.394531 55 40.4375 63.964844 47.527344 65.730469 C 71.492188 69.070313 91.453125 61.304688 93.601563 39.285156 C 94.929688 17.691406 80.019531 8.601563 64.507813 8.601563 L 0.148438 8.601563 L 0.148438 18.570313 C 7.777344 17.960938 12.40625 20.351563 12.765625 27.015625 L 12.765625 91.765625 C 11.746094 97.464844 7.285156 99.929688 0.0859375 99.808594 Z M 0.0859375 108.929688 "/>
<path style=" stroke:none;fill-rule:evenodd;fill:rgb(10.594177%,9.812927%,9.423828%);fill-opacity:1;" d="M 109.789063 87.144531 C 101.308594 75.253906 103.613281 65.28125 113.359375 58.722656 L 140.695313 91.804688 C 128.808594 100.148438 118.359375 99.511719 109.789063 87.144531 Z M 132 18.804688 C 137.648438 25.046875 136.757813 33.21875 128.269531 38.0625 L 119.417969 26.570313 C 114.914063 17.25 126.71875 12.074219 132 18.804688 Z M 254.777344 106.777344 C 210.703125 121.871094 180.46875 94.269531 179.683594 54.839844 C 175.246094 64.464844 170.710938 72.730469 163.527344 80.777344 C 169.675781 88.265625 174.195313 98.847656 183.71875 99.261719 L 190.863281 99.261719 L 190.863281 110.289063 L 179.214844 110.289063 C 163.308594 110.792969 153.292969 107.917969 146.441406 98.484375 C 135.890625 109.835938 120.394531 113.433594 105.90625 111.53125 C 91.480469 108.820313 81.703125 100.78125 79.964844 87.300781 C 78.339844 72.15625 88.578125 60.609375 107.457031 51.265625 L 101.867188 43.8125 C 94.289063 32.863281 99.453125 18.101563 114.292969 9.953125 C 127.980469 2.964844 141.609375 4.976563 148.308594 15.542969 C 154.683594 26.273438 148.972656 36.445313 134.640625 44.433594 L 156.695313 73.011719 C 167.003906 60.996094 167.199219 52.769531 157.316406 53.441406 L 157.316406 43.964844 L 182.789063 43.964844 C 186.960938 25.773438 203.035156 11.527344 224.511719 6.296875 C 250.804688 2.226563 273.5 11.070313 284.46875 39.242188 C 293.15625 69.511719 281.71875 93.679688 254.777344 106.777344 Z M 253.628906 90.960938 C 261.859375 73.6875 257.847656 41.769531 249.796875 25.453125 C 241.175781 8.789063 218.492188 13.253906 212.742188 29.472656 C 206.015625 53.789063 209.957031 81.078125 221.554688 95.75 C 228.183594 105.019531 245.023438 105.078125 253.628906 90.960938 Z M 253.628906 90.960938 "/>
<path style=" stroke:none;fill-rule:evenodd;fill:rgb(10.594177%,9.812927%,9.423828%);fill-opacity:1;" d="M 451.230469 203.015625 C 447.648438 199.957031 444.378906 193.921875 444.949219 184.066406 L 478.757813 184.066406 C 478.171875 169.726563 470.355469 162.082031 457.71875 161.714844 C 444.796875 161.417969 433.734375 170.453125 435.0625 194.160156 C 437.605469 211.015625 447.625 218.566406 462.871094 216.507813 C 469.375 214.882813 474.011719 211.269531 477.90625 204.457031 L 474.816406 201.058594 C 467.683594 208.527344 459.496094 209.488281 451.230469 203.015625 Z M 455.660156 166.660156 C 448.820313 167.132813 445.335938 171.714844 445.359375 179.636719 L 466.578125 179.636719 C 466.097656 170.648438 462.21875 166.71875 455.660156 166.660156 Z M 455.660156 166.660156 "/>
<path style=" stroke:none;fill-rule:evenodd;fill:rgb(10.594177%,9.812927%,9.423828%);fill-opacity:1;" d="M 503.8125 211.390625 C 499.453125 211.535156 496.1875 209.464844 495.75 203.335938 L 495.75 178.253906 C 497.179688 174.417969 500.871094 171.890625 503.996094 170.0625 C 506.667969 174.757813 509.5 175.964844 512.472656 175.722656 C 515.414063 175.105469 517.949219 170.566406 516.230469 166.132813 C 513.585938 160.761719 507.355469 160.242188 503.101563 163.71875 L 495.859375 171.015625 L 495.859375 163.496094 C 495.824219 161.804688 493.746094 161.632813 491.371094 162.652344 L 479.023438 166.917969 C 476.570313 168.007813 476.59375 170.429688 481.042969 172.304688 L 485.816406 174.328125 L 485.816406 203.753906 C 485.746094 207.664063 484.15625 211.121094 479.632813 211.492188 L 477.832031 211.492188 L 477.832031 216 L 506.867188 216 L 506.867188 211.390625 Z M 503.8125 211.390625 "/>
<path style=" stroke:none;fill-rule:evenodd;fill:rgb(10.594177%,9.812927%,9.423828%);fill-opacity:1;" d="M 344.6875 162.617188 C 355.144531 161.6875 362.085938 166.402344 362.046875 175.421875 L 362.046875 206.523438 C 362.1875 209.058594 364.789063 209.753906 367.242188 207.707031 C 368.9375 210.074219 369.0625 213.839844 365.199219 216.210938 C 359.472656 218.808594 354.371094 217.15625 351.792969 210.730469 C 343.722656 216.691406 334.726563 218.742188 329.023438 214.519531 C 324.148438 210.417969 323.660156 202.589844 327.074219 197.84375 C 331.355469 190.964844 340.917969 187.386719 351.859375 184.671875 L 351.859375 175.550781 C 351.785156 169.785156 349.046875 166.640625 342.816406 166.746094 C 337.558594 167.121094 334.4375 170.058594 335.414063 174.695313 C 337.292969 178.152344 336.105469 180.332031 332.996094 181.710938 C 328.109375 183.757813 325.546875 181.191406 326.527344 174.304688 C 328.136719 167.714844 335.234375 162.894531 344.6875 162.617188 Z M 351.96875 203.847656 L 351.96875 190.019531 C 339.617188 193.648438 333.976563 197.859375 335.359375 204.125 C 336.625 210.46875 346.714844 211.078125 351.96875 203.847656 Z M 351.96875 203.847656 "/>
<path style=" stroke:none;fill-rule:evenodd;fill:rgb(10.594177%,9.812927%,9.423828%);fill-opacity:1;" d="M 372.101563 170.617188 C 376.933594 161.160156 391.625 160.085938 402.601563 166.292969 L 403.171875 178.015625 L 399.1875 178.015625 C 397.023438 168.9375 391.109375 164.484375 383.371094 167.203125 C 377.398438 170.617188 378.453125 177.789063 387.808594 182.226563 C 400.359375 187.3125 407.886719 193.785156 405.675781 204.644531 C 402.832031 215.269531 393.886719 218.464844 383.9375 217.617188 C 378.910156 217.257813 374.894531 214.75 371.988281 211.699219 L 371.988281 198.386719 L 376.425781 198.386719 C 377.4375 208.132813 381.5625 212.992188 388.945313 212.722656 C 398.929688 212.347656 400.960938 199.027344 388.035156 194.628906 C 374.457031 187.992188 368.417969 181.125 372.101563 170.617188 Z M 372.101563 170.617188 "/>
<path style=" stroke:none;fill-rule:evenodd;fill:rgb(10.594177%,9.812927%,9.423828%);fill-opacity:1;" d="M 520.03125 170.617188 C 524.859375 161.160156 539.554688 160.085938 550.527344 166.292969 L 551.097656 178.015625 L 547.113281 178.015625 C 544.949219 168.9375 539.039063 164.484375 531.296875 167.203125 C 525.324219 170.617188 526.378906 177.789063 535.734375 182.226563 C 548.285156 187.3125 555.816406 193.785156 553.601563 204.644531 C 550.761719 215.269531 541.8125 218.464844 531.867188 217.617188 C 526.835938 217.257813 522.820313 214.75 519.917969 211.699219 L 519.917969 198.386719 L 524.355469 198.386719 C 525.367188 208.132813 529.488281 212.992188 536.875 212.722656 C 546.859375 212.347656 548.890625 199.027344 535.960938 194.628906 C 522.386719 187.992188 516.34375 181.125 520.03125 170.617188 Z M 520.03125 170.617188 "/>
<path style=" stroke:none;fill-rule:evenodd;fill:rgb(10.594177%,9.812927%,9.423828%);fill-opacity:1;" d="M 417.773438 215.273438 C 414.125 212.679688 412.75 207.789063 412.824219 200.617188 L 412.824219 168.175781 C 410.398438 168.175781 407.972656 168.175781 405.546875 168.175781 C 405.546875 167.234375 405.546875 166.296875 405.546875 165.355469 C 411.296875 164.039063 415.875 159.316406 420.230469 153.933594 L 423.207031 153.933594 L 423.207031 162.753906 L 436.167969 162.753906 L 436.167969 168.242188 L 423.367188 168.242188 L 423.367188 202.25 C 423.585938 211.304688 428.957031 212.289063 436.785156 209.425781 L 437.734375 213.511719 C 432 217.226563 422.511719 218.6875 417.773438 215.273438 Z M 417.773438 215.273438 "/>
</g>
</svg>
